<?xml version="1.0" encoding="utf-8"?>
<!-- Generator: Adobe Illustrator 25.0.0, SVG Export Plug-In . SVG Version: 6.00 Build 0)  -->
<svg version="1.1" id="レイヤー_1" xmlns="http://www.w3.org/2000/svg" xmlns:xlink="http://www.w3.org/1999/xlink" x="0px"
	 y="0px" viewBox="0 0 20 20" style="enable-background:new 0 0 20 20;" xml:space="preserve">
<style type="text/css">
	.st0{fill:#00A4DE;}
	.st1{fill:#FFFFFF;}
</style>
<g>
	<circle class="st0" cx="10" cy="10" r="10"/>
	<g>
		<path class="st1" d="M11,10.3c-0.4-0.4-0.9-0.6-1.5-0.7C10,9.6,10.5,9.3,10.8,9c0.3-0.3,0.4-0.7,0.4-1.2c0-0.4-0.1-0.7-0.2-1
			c-0.2-0.3-0.4-0.5-0.7-0.7c-0.3-0.2-0.7-0.3-1-0.3C8.5,5.7,7.8,5.6,7.1,5.6H4.7v8.7h2.5c0.7,0,1.4,0,2.1-0.1
			c0.4-0.1,0.8-0.2,1.1-0.3c0.4-0.2,0.6-0.5,0.8-0.8c0.2-0.4,0.3-0.8,0.3-1.2C11.6,11.3,11.4,10.7,11,10.3z M6.9,7.6h0.5
			c0.4,0,0.8,0,1.2,0.2c0.2,0.2,0.3,0.4,0.3,0.7c0,0.3-0.1,0.5-0.3,0.7C8.2,9.3,7.8,9.4,7.4,9.3H6.9V7.6z M9,12.6
			c-0.4,0.2-0.8,0.2-1.2,0.2H6.9v-1.9h0.9c0.4,0,0.8,0,1.2,0.2c0.2,0.2,0.4,0.5,0.3,0.8C9.3,12.1,9.2,12.4,9,12.6z"/>
		<circle class="st1" cx="14.1" cy="13.3" r="1.1"/>
		<path class="st1" d="M13.1,5.6H15v5.8h-1.9V5.6z"/>
	</g>
</g>
</svg>
