<svg xmlns="http://www.w3.org/2000/svg" width="36.046" height="23.806" viewBox="0 0 36.046 23.806">
  <g id="グループ_2" data-name="グループ 2" transform="translate(-0.441 -8.441)">
    <path id="パス_3" data-name="パス 3" d="M30.459,18.477a5.018,5.018,0,1,1,5.018-5.018A5.024,5.024,0,0,1,30.459,18.477Zm0-7.65a2.632,2.632,0,1,0,2.632,2.632A2.636,2.636,0,0,0,30.459,10.826Z" transform="translate(-5.874)" fill="#fff"/>
    <path id="パス_4" data-name="パス 4" d="M15.4,15.826H1.634a1.193,1.193,0,0,1,0-2.385H15.4a1.193,1.193,0,0,1,0,2.385Z" transform="translate(0 -1.175)" fill="#fff"/>
    <path id="パス_5" data-name="パス 5" d="M43.636,15.826h-6.5a1.193,1.193,0,0,1,0-2.385h6.5a1.193,1.193,0,0,1,0,2.385Z" transform="translate(-8.342 -1.175)" fill="#fff"/>
    <path id="パス_6" data-name="パス 6" d="M8.519,33.826H1.634a1.193,1.193,0,1,1,0-2.385H8.519a1.193,1.193,0,1,1,0,2.385Z" transform="translate(0 -5.404)" fill="#fff"/>
    <path id="パス_7" data-name="パス 7" d="M14.459,36.477a5.018,5.018,0,1,1,5.018-5.018A5.024,5.024,0,0,1,14.459,36.477Zm0-7.65a2.632,2.632,0,1,0,2.632,2.632A2.636,2.636,0,0,0,14.459,28.826Z" transform="translate(-2.115 -4.23)" fill="#fff"/>
    <path id="パス_8" data-name="パス 8" d="M41.169,33.826H26.634a1.193,1.193,0,1,1,0-2.385H41.169a1.193,1.193,0,1,1,0,2.385Z" transform="translate(-5.874 -5.404)" fill="#fff"/>
  </g>
</svg>
